<svg id="svg" version="1.1" xmlns="http://www.w3.org/2000/svg" xmlns:xlink="http://www.w3.org/1999/xlink" width="400" height="400" viewBox="0, 0, 400,400"><g id="svgg"><path id="path0" d="M15.200 40.000 C 15.200 40.220,14.658 40.400,13.995 40.400 C 13.332 40.400,12.477 40.560,12.095 40.756 C 11.713 40.951,10.725 41.442,9.900 41.847 C 9.075 42.251,8.400 42.721,8.400 42.891 C 8.400 43.061,8.159 43.200,7.864 43.200 C 7.206 43.200,3.600 46.550,3.600 47.160 C 3.600 47.402,3.420 47.600,3.200 47.600 C 2.980 47.600,2.800 47.870,2.800 48.200 C 2.800 48.530,2.620 48.800,2.400 48.800 C 2.180 48.800,2.000 49.160,2.000 49.600 C 2.000 50.040,1.820 50.400,1.600 50.400 C 1.380 50.400,1.200 50.745,1.200 51.167 C 1.200 51.588,0.975 52.008,0.700 52.100 C -0.036 52.345,-0.036 296.055,0.700 296.300 C 0.975 296.392,1.200 296.812,1.200 297.233 C 1.200 297.655,1.380 298.000,1.600 298.000 C 1.820 298.000,2.000 298.320,2.000 298.712 C 2.000 299.103,2.360 299.683,2.800 300.000 C 3.240 300.317,3.600 300.789,3.600 301.048 C 3.600 301.629,6.323 304.400,6.893 304.400 C 7.120 304.400,7.597 304.718,7.953 305.107 C 8.881 306.121,11.828 307.510,14.520 308.203 C 16.528 308.720,25.189 308.800,79.020 308.800 L 141.200 308.800 141.200 310.000 C 141.200 310.660,141.020 311.200,140.800 311.200 C 140.578 311.200,140.400 312.259,140.400 313.576 C 140.400 314.883,140.220 316.064,140.000 316.200 C 139.780 316.336,139.600 317.607,139.600 319.024 C 139.600 320.475,139.425 321.600,139.200 321.600 C 138.975 321.600,138.800 322.725,138.800 324.176 C 138.800 325.593,138.620 326.864,138.400 327.000 C 138.180 327.136,138.000 328.407,138.000 329.824 C 138.000 331.275,137.825 332.400,137.600 332.400 C 137.378 332.400,137.200 333.459,137.200 334.776 C 137.200 336.083,137.020 337.264,136.800 337.400 C 136.580 337.536,136.400 338.787,136.400 340.181 C 136.400 343.426,137.406 343.200,122.979 343.200 C 109.479 343.200,106.800 343.754,106.800 346.548 C 106.800 346.881,106.620 347.264,106.400 347.400 C 105.879 347.722,105.879 352.278,106.400 352.600 C 106.620 352.736,106.800 353.115,106.800 353.442 C 106.800 354.212,108.588 356.000,109.358 356.000 C 109.685 356.000,110.064 356.180,110.200 356.400 C 110.668 357.158,254.017 356.930,255.542 356.169 C 257.946 354.970,258.800 353.316,258.800 349.862 C 258.800 348.087,258.632 346.800,258.400 346.800 C 258.180 346.800,258.000 346.561,258.000 346.270 C 258.000 345.699,256.751 344.508,255.305 343.700 C 254.643 343.330,251.146 343.200,241.805 343.200 L 229.200 343.200 229.200 342.200 C 229.200 341.650,229.020 341.200,228.800 341.200 C 228.571 341.200,228.400 340.000,228.400 338.400 C 228.400 336.800,228.229 335.600,228.000 335.600 C 227.774 335.600,227.600 334.467,227.600 333.000 C 227.600 331.533,227.426 330.400,227.200 330.400 C 226.978 330.400,226.800 329.333,226.800 328.000 C 226.800 326.667,226.622 325.600,226.400 325.600 C 226.171 325.600,226.000 324.400,226.000 322.800 C 226.000 321.260,225.847 320.000,225.660 320.000 C 225.473 320.000,225.203 318.061,225.059 315.692 C 224.915 313.323,224.630 310.803,224.426 310.092 L 224.056 308.800 276.628 308.800 L 329.200 308.800 329.200 316.000 L 329.200 323.200 321.800 323.200 C 317.133 323.200,314.400 323.348,314.400 323.600 C 314.400 323.820,313.860 324.000,313.200 324.000 C 312.540 324.000,312.000 324.180,312.000 324.400 C 312.000 324.620,311.724 324.800,311.386 324.800 C 309.999 324.800,304.400 329.762,304.400 330.991 C 304.400 331.326,304.220 331.600,304.000 331.600 C 303.780 331.600,303.600 331.960,303.600 332.400 C 303.600 332.840,303.420 333.200,303.200 333.200 C 302.980 333.200,302.800 333.920,302.800 334.800 C 302.800 335.680,302.620 336.400,302.400 336.400 C 302.144 336.400,302.000 340.000,302.000 346.400 C 302.000 352.800,302.144 356.400,302.400 356.400 C 302.620 356.400,302.800 356.678,302.800 357.018 C 302.800 357.358,303.242 358.078,303.782 358.618 C 304.322 359.158,305.042 359.600,305.382 359.600 C 305.722 359.600,306.000 359.780,306.000 360.000 C 306.000 360.264,321.200 360.400,350.800 360.400 C 380.400 360.400,395.600 360.264,395.600 360.000 C 395.600 359.780,395.878 359.600,396.218 359.600 C 397.099 359.600,398.800 357.783,398.800 356.842 C 398.800 356.405,398.980 355.936,399.200 355.800 C 399.742 355.465,399.742 337.335,399.200 337.000 C 398.980 336.864,398.800 336.054,398.800 335.200 C 398.800 334.346,398.620 333.536,398.400 333.400 C 398.180 333.264,398.000 332.803,398.000 332.376 C 398.000 331.949,397.820 331.600,397.600 331.600 C 397.380 331.600,397.200 331.346,397.200 331.035 C 397.200 330.110,392.604 325.726,391.044 325.161 C 390.250 324.874,389.600 324.495,389.600 324.320 C 389.600 324.144,389.071 324.000,388.424 324.000 C 387.777 324.000,387.136 323.820,387.000 323.600 C 386.850 323.357,383.929 323.200,379.576 323.200 L 372.400 323.200 372.400 316.000 L 372.400 308.800 378.976 308.800 C 382.929 308.800,385.651 308.640,385.800 308.400 C 385.936 308.180,386.514 308.000,387.084 308.000 C 388.257 308.000,392.400 306.093,392.400 305.553 C 392.400 305.359,392.635 305.200,392.922 305.200 C 393.534 305.200,396.400 302.663,396.400 302.121 C 396.400 301.918,396.715 301.402,397.101 300.975 C 397.486 300.549,398.251 299.312,398.801 298.228 L 399.800 296.255 399.800 239.461 C 399.800 194.381,399.697 182.632,399.300 182.500 C 399.025 182.408,398.800 182.028,398.800 181.655 C 398.800 181.282,398.440 180.717,398.000 180.400 C 397.560 180.083,397.200 179.579,397.200 179.280 C 397.200 178.982,396.486 178.076,395.613 177.269 C 393.271 175.102,392.878 174.800,392.400 174.800 C 392.162 174.800,391.580 174.440,391.108 174.000 C 390.636 173.560,389.923 173.200,389.525 173.200 C 389.126 173.200,388.800 173.020,388.800 172.800 C 388.800 172.580,388.260 172.400,387.600 172.400 C 386.940 172.400,386.400 172.220,386.400 172.000 C 386.400 171.744,382.733 171.600,376.200 171.600 L 366.000 171.600 366.000 114.200 C 366.000 76.200,365.865 56.800,365.600 56.800 C 365.380 56.800,365.200 56.080,365.200 55.200 C 365.200 54.320,365.020 53.600,364.800 53.600 C 364.580 53.600,364.400 53.060,364.400 52.400 C 364.400 51.740,364.220 51.200,364.000 51.200 C 363.780 51.200,363.600 50.840,363.600 50.400 C 363.600 49.960,363.420 49.600,363.200 49.600 C 362.980 49.600,362.800 49.351,362.800 49.046 C 362.800 47.494,355.248 41.200,353.386 41.200 C 353.064 41.200,352.800 41.020,352.800 40.800 C 352.800 40.580,352.260 40.400,351.600 40.400 C 350.940 40.400,350.400 40.220,350.400 40.000 C 350.400 39.734,305.811 39.600,217.432 39.600 L 84.463 39.600 82.632 41.432 C 80.744 43.319,80.318 44.702,81.358 45.565 C 81.665 45.820,82.027 46.621,82.163 47.344 C 82.465 48.954,84.193 50.682,86.027 51.208 C 86.908 51.460,133.624 51.603,217.197 51.609 C 363.007 51.619,348.653 51.305,351.498 54.545 C 353.467 56.787,353.400 54.665,353.400 115.200 L 353.400 172.200 334.600 172.409 C 319.999 172.570,315.532 172.738,314.600 173.159 C 310.564 174.982,309.562 175.625,307.372 177.794 C 305.000 180.145,303.200 183.144,302.278 186.282 C 301.975 187.312,301.762 197.825,301.616 219.000 L 301.400 250.200 292.600 250.313 C 287.760 250.375,283.395 250.327,282.900 250.205 L 282.000 249.985 281.996 183.292 C 281.991 110.494,282.146 115.434,279.708 110.445 C 277.368 105.657,271.053 100.986,265.575 99.991 C 261.780 99.302,94.109 99.656,92.600 100.357 C 91.940 100.663,90.410 101.370,89.200 101.927 C 86.419 103.209,82.085 107.470,80.619 110.363 C 78.042 115.448,78.251 109.607,78.015 183.200 L 77.800 250.200 44.800 250.200 L 11.800 250.200 11.696 154.200 C 11.618 81.787,11.707 57.905,12.059 57.000 C 12.728 55.280,14.743 53.222,16.600 52.360 C 18.102 51.663,19.676 51.617,42.200 51.607 C 56.823 51.600,66.759 51.440,67.630 51.198 C 71.980 49.990,73.930 42.322,70.300 40.697 C 69.695 40.426,69.200 40.069,69.200 39.902 C 69.200 39.736,57.050 39.600,42.200 39.600 C 24.467 39.600,15.200 39.737,15.200 40.000 M265.393 111.639 C 267.566 112.660,269.765 115.014,270.470 117.072 C 271.384 119.744,271.442 249.230,270.529 249.900 C 269.741 250.478,90.602 250.643,89.694 250.067 C 89.289 249.810,89.209 236.572,89.294 183.573 L 89.400 117.400 90.308 115.874 C 91.514 113.846,92.793 112.609,94.660 111.666 C 96.170 110.902,97.809 110.886,179.904 110.844 L 263.609 110.800 265.393 111.639 M113.359 132.172 C 107.165 134.868,110.227 142.800,117.461 142.800 L 120.400 142.800 120.400 151.220 C 120.400 157.830,120.526 159.883,120.986 160.772 C 123.544 165.719,130.301 164.921,131.562 159.523 C 131.803 158.490,132.000 154.305,132.000 150.223 L 132.000 142.800 134.820 142.800 C 142.279 142.800,145.074 134.507,138.474 131.958 C 136.900 131.350,114.814 131.538,113.359 132.172 M148.689 154.054 C 145.610 156.351,145.644 160.953,148.756 163.168 C 150.550 164.446,166.650 164.446,168.444 163.168 C 171.586 160.931,171.586 156.269,168.444 154.032 C 166.654 152.757,150.403 152.776,148.689 154.054 M183.496 154.425 C 180.801 156.647,180.771 160.399,183.431 162.700 L 184.933 164.000 193.636 164.000 L 202.339 164.000 203.584 162.952 C 206.753 160.286,206.753 156.914,203.584 154.248 L 202.339 153.200 193.660 153.200 L 184.982 153.200 183.496 154.425 M218.734 154.102 C 216.437 156.038,215.872 158.597,217.177 161.155 C 218.589 163.923,218.901 164.000,228.719 164.000 L 237.467 164.000 239.033 162.646 C 240.566 161.321,240.600 161.233,240.600 158.600 C 240.600 155.967,240.566 155.879,239.033 154.554 L 237.467 153.200 228.633 153.202 C 220.063 153.204,219.768 153.231,218.734 154.102 M116.908 181.793 C 113.238 183.389,113.036 189.324,116.573 191.640 C 117.519 192.259,129.381 192.669,133.057 192.210 C 138.538 191.525,140.174 185.125,135.641 182.105 C 133.945 180.976,119.347 180.733,116.908 181.793 M149.800 181.572 C 145.979 183.217,145.358 188.176,148.594 191.200 L 149.664 192.200 158.600 192.200 L 167.536 192.200 168.606 191.200 C 171.345 188.641,171.516 185.330,169.038 182.850 L 167.588 181.400 159.094 181.314 C 154.422 181.267,150.240 181.383,149.800 181.572 M184.119 181.984 C 180.790 184.014,180.657 189.257,183.880 191.441 C 185.584 192.596,201.618 192.594,203.323 191.439 C 206.693 189.155,206.651 184.408,203.241 182.114 C 201.291 180.802,186.226 180.700,184.119 181.984 M219.296 181.998 C 215.724 184.176,215.501 188.849,218.855 191.241 C 220.175 192.182,220.359 192.200,228.893 192.200 L 237.587 192.200 239.048 190.738 C 241.724 188.063,241.170 183.541,237.966 181.901 C 235.793 180.788,221.156 180.864,219.296 181.998 M384.800 185.022 C 387.815 186.794,387.986 187.599,387.993 200.064 L 388.000 211.129 379.900 211.264 C 369.732 211.435,367.844 212.397,367.833 217.418 C 367.822 222.357,370.375 223.600,380.526 223.600 L 388.000 223.600 388.000 230.800 L 388.000 238.000 380.059 238.000 C 369.942 238.000,367.784 239.090,367.857 244.162 C 367.929 249.120,369.747 250.000,379.925 250.000 L 388.000 250.000 388.000 257.400 L 388.000 264.800 379.872 264.800 L 371.744 264.800 370.081 266.223 C 366.958 268.896,366.958 272.704,370.081 275.377 L 371.744 276.800 379.872 276.800 L 388.000 276.800 388.000 283.874 C 388.000 291.914,387.595 293.435,385.009 295.100 L 383.611 296.000 350.867 296.000 C 309.930 296.000,313.233 297.149,313.210 282.900 L 313.200 276.800 320.700 276.798 C 331.412 276.795,333.600 275.785,333.600 270.847 C 333.600 265.818,331.468 264.800,320.942 264.800 L 313.182 264.800 313.291 257.500 L 313.400 250.200 321.600 250.000 C 330.480 249.783,330.880 249.691,332.584 247.457 C 333.919 245.706,334.007 242.496,332.768 240.756 C 331.121 238.441,330.188 238.223,321.291 238.069 L 313.182 237.929 313.291 230.664 L 313.400 223.400 321.800 223.200 C 330.941 222.982,331.163 222.929,332.714 220.563 C 333.858 218.818,333.904 215.903,332.816 214.119 C 331.401 211.799,330.522 211.600,321.663 211.600 C 314.758 211.600,313.653 211.515,313.443 210.967 C 312.869 209.472,313.185 189.733,313.807 188.246 C 314.523 186.532,316.514 184.518,317.735 184.273 C 321.330 183.553,383.480 184.247,384.800 185.022 M118.006 209.610 C 113.228 210.733,112.552 217.967,117.049 219.846 C 119.768 220.982,134.840 220.474,136.220 219.200 C 139.914 215.789,138.271 210.130,133.392 209.461 C 130.770 209.102,119.712 209.208,118.006 209.610 M150.805 209.477 C 147.036 210.248,145.180 215.034,147.446 218.139 C 149.947 221.568,167.260 221.557,169.765 218.126 C 171.555 215.673,170.778 211.853,168.138 210.122 C 167.040 209.402,153.613 208.902,150.805 209.477 M185.800 209.532 C 181.026 210.598,179.947 217.072,184.119 219.616 C 186.061 220.800,201.138 220.801,203.078 219.618 C 206.655 217.437,206.783 212.488,203.323 210.170 C 202.142 209.378,188.683 208.889,185.800 209.532 M220.902 209.489 C 216.684 210.013,215.107 215.363,218.181 218.720 L 219.537 220.200 228.068 220.311 C 235.604 220.409,236.760 220.339,237.966 219.711 C 242.306 217.452,241.371 210.697,236.565 209.582 C 235.050 209.231,223.534 209.162,220.902 209.489 M301.600 276.442 C 301.600 288.497,301.715 291.730,302.215 293.657 C 302.553 294.961,302.722 296.202,302.591 296.414 C 302.277 296.922,20.418 296.924,18.229 296.417 C 12.165 295.010,11.625 293.336,11.611 275.900 L 11.600 261.600 156.600 261.600 L 301.600 261.600 301.600 276.442 M181.556 274.977 C 179.006 275.724,177.600 277.580,177.600 280.200 C 177.600 286.634,186.399 287.864,188.429 281.714 C 189.741 277.736,185.692 273.767,181.556 274.977 M359.600 316.008 L 359.600 324.015 350.700 323.908 L 341.800 323.800 341.691 316.413 C 341.630 312.350,341.670 308.795,341.778 308.513 C 341.930 308.117,343.988 308.000,350.787 308.000 L 359.600 308.000 359.600 316.008 M211.681 310.800 C 211.973 313.083,212.463 316.337,213.186 320.800 C 213.418 322.230,213.792 324.660,214.017 326.200 C 214.565 329.948,215.045 333.143,215.639 337.000 C 215.910 338.760,216.147 341.100,216.166 342.200 L 216.200 344.200 182.844 344.302 C 147.672 344.410,148.069 344.430,148.578 342.628 C 148.707 342.173,149.001 340.450,149.233 338.800 C 149.465 337.150,149.822 334.675,150.027 333.300 C 150.232 331.925,150.568 329.675,150.773 328.300 C 150.978 326.925,151.346 324.450,151.591 322.800 C 151.836 321.150,152.200 318.810,152.401 317.600 C 152.601 316.390,152.963 313.972,153.204 312.227 C 153.446 310.481,153.735 308.905,153.847 308.724 C 153.959 308.543,166.954 308.441,182.725 308.497 L 211.400 308.600 211.681 310.800 M384.314 335.630 C 386.657 336.447,388.157 342.931,387.037 347.395 L 386.784 348.404 350.692 348.302 L 314.600 348.200 314.488 343.558 C 314.266 334.371,310.686 335.203,350.440 335.201 C 372.687 335.200,383.473 335.337,384.314 335.630 " stroke="none" fill="#090909" fill-rule="evenodd"></path><path id="path1" d="M71.605 46.782 C 70.292 51.658,70.686 51.593,42.200 51.607 C 19.676 51.617,18.102 51.663,16.600 52.360 C 14.743 53.222,12.728 55.280,12.059 57.000 C 11.707 57.905,11.618 81.787,11.696 154.200 L 11.800 250.200 44.800 250.200 L 77.800 250.200 78.015 183.200 C 78.208 122.819,78.294 116.018,78.878 114.360 C 80.158 110.725,81.756 108.161,84.356 105.573 C 86.740 103.200,88.192 102.281,92.400 100.482 C 93.170 100.153,93.231 100.048,92.666 100.027 C 88.610 99.878,81.356 106.736,78.689 113.240 L 77.804 115.400 77.602 182.600 L 77.400 249.800 44.700 249.902 L 12.000 250.005 12.000 154.198 L 12.000 58.391 12.852 56.579 C 13.404 55.405,14.354 54.316,15.552 53.484 L 17.400 52.200 42.800 52.000 L 68.200 51.800 69.491 50.879 C 70.781 49.959,71.708 48.375,72.170 46.300 C 72.548 44.604,72.085 44.999,71.605 46.782 M81.543 47.242 C 82.042 48.710,82.727 49.739,83.769 50.582 L 85.274 51.800 216.337 52.000 C 341.280 52.191,347.459 52.233,348.672 52.915 C 353.484 55.621,353.200 51.665,353.200 116.020 L 353.200 171.600 347.100 171.640 C 314.691 171.852,312.721 172.117,307.240 176.991 C 304.419 179.499,301.320 185.481,301.697 187.691 C 301.815 188.379,301.930 188.212,302.173 187.000 C 302.790 183.921,304.834 180.297,307.366 177.794 C 309.561 175.625,310.565 174.982,314.600 173.159 C 315.532 172.738,319.999 172.570,334.600 172.409 L 353.400 172.200 353.400 115.200 C 353.400 54.665,353.467 56.787,351.498 54.545 C 348.653 51.305,363.007 51.619,217.197 51.609 C 133.624 51.603,86.908 51.460,86.027 51.208 C 84.193 50.682,82.465 48.954,82.163 47.344 C 82.027 46.621,81.670 45.824,81.369 45.574 C 80.961 45.236,81.006 45.662,81.543 47.242 M94.138 99.506 C 93.884 99.668,131.853 99.752,178.513 99.694 C 234.343 99.624,264.111 99.725,265.575 99.991 C 271.053 100.986,277.368 105.657,279.708 110.445 C 282.146 115.434,281.991 110.494,281.996 183.292 L 282.000 249.985 282.900 250.205 C 283.395 250.327,287.760 250.375,292.600 250.313 L 301.400 250.200 301.404 219.700 L 301.408 189.200 301.301 219.607 L 301.195 250.015 292.097 249.908 L 283.000 249.800 282.786 183.200 C 282.631 134.754,282.447 116.172,282.113 115.030 C 280.000 107.821,274.962 102.529,267.955 100.158 L 265.123 99.200 179.862 99.206 C 132.968 99.209,94.392 99.344,94.138 99.506 M94.660 111.666 C 92.793 112.609,91.514 113.846,90.308 115.874 L 89.400 117.400 89.294 183.573 C 89.209 236.572,89.289 249.810,89.694 250.067 C 90.480 250.566,269.493 250.486,270.426 249.986 C 271.236 249.553,271.695 122.728,270.900 119.150 C 270.735 118.407,270.510 147.500,270.400 183.800 L 270.200 249.800 180.000 249.800 L 89.800 249.800 89.800 183.800 L 89.800 117.800 90.688 116.139 C 91.779 114.099,93.941 112.264,95.969 111.657 C 97.090 111.321,119.438 111.201,180.446 111.204 L 263.400 111.208 265.400 112.147 C 267.637 113.198,268.330 113.877,269.535 116.200 C 269.991 117.080,270.373 117.566,270.382 117.280 C 270.439 115.619,267.537 112.486,264.936 111.399 C 262.394 110.337,96.775 110.596,94.660 111.666 M112.796 132.100 C 107.026 136.027,109.854 143.200,117.172 143.200 L 119.984 143.200 120.100 151.500 L 120.217 159.800 120.309 151.300 L 120.400 142.800 117.461 142.800 C 110.172 142.800,107.150 134.786,113.447 132.155 C 114.992 131.509,136.867 131.337,138.474 131.958 C 145.114 134.523,142.311 142.675,134.720 142.878 L 131.800 142.957 134.569 143.098 C 142.186 143.487,145.632 135.734,139.504 131.998 C 137.361 130.691,114.739 130.778,112.796 132.100 M150.200 152.826 C 145.233 154.413,144.498 161.145,148.994 163.869 C 150.060 164.515,151.172 164.600,158.600 164.600 C 167.974 164.600,168.544 164.462,170.306 161.775 C 172.099 159.039,171.118 155.095,168.206 153.331 C 166.826 152.495,152.494 152.093,150.200 152.826 M185.096 152.972 C 182.734 153.815,181.145 155.670,181.236 157.480 C 181.256 157.876,181.438 157.626,181.641 156.925 C 181.844 156.224,182.679 155.099,183.496 154.425 L 184.982 153.200 193.660 153.200 L 202.339 153.200 203.584 154.248 C 206.753 156.914,206.753 160.286,203.584 162.952 L 202.339 164.000 193.636 164.000 L 184.933 164.000 183.418 162.690 C 182.348 161.765,181.814 160.915,181.598 159.790 C 181.328 158.388,181.287 158.342,181.247 159.400 C 181.095 163.522,183.956 164.780,193.513 164.791 C 202.626 164.802,204.426 164.228,205.833 160.859 C 207.192 157.607,205.778 154.469,202.298 153.015 C 200.333 152.194,187.367 152.162,185.096 152.972 M220.600 152.785 C 220.096 153.011,223.066 153.154,228.633 153.172 L 237.467 153.200 239.033 154.554 C 240.566 155.879,240.600 155.967,240.600 158.600 C 240.600 161.233,240.566 161.321,239.033 162.646 L 237.467 164.000 228.633 164.025 C 222.302 164.044,220.083 164.164,220.800 164.452 C 222.938 165.311,236.818 164.713,238.460 163.692 C 239.860 162.822,241.600 160.000,241.600 158.600 C 241.600 157.200,239.860 154.378,238.460 153.508 C 236.882 152.527,222.475 151.944,220.600 152.785 M168.444 154.032 C 171.586 156.269,171.586 160.931,168.444 163.168 C 166.650 164.446,150.550 164.446,148.756 163.168 C 145.644 160.953,145.610 156.351,148.689 154.054 C 150.403 152.776,166.654 152.757,168.444 154.032 M217.661 154.591 C 216.208 156.247,215.731 158.325,216.339 160.355 C 216.782 161.832,218.979 164.354,219.430 163.903 C 219.561 163.772,219.294 163.464,218.836 163.219 C 215.858 161.625,215.801 156.573,218.734 154.102 C 219.320 153.608,219.594 153.203,219.341 153.202 C 219.089 153.201,218.333 153.826,217.661 154.591 M131.446 159.900 C 130.527 164.839,123.920 165.568,121.156 161.035 C 120.742 160.356,120.403 159.980,120.403 160.200 C 120.403 162.345,124.494 165.097,126.920 164.584 C 129.856 163.964,132.268 161.364,131.921 159.194 C 131.795 158.404,131.697 158.549,131.446 159.900 M117.400 181.084 C 115.098 181.636,112.541 186.132,113.547 187.862 C 113.899 188.468,113.978 188.277,113.989 186.800 C 114.026 182.024,115.841 181.200,126.328 181.200 C 136.438 181.200,139.043 182.612,138.195 187.630 C 137.492 191.792,135.144 192.577,124.140 192.332 C 116.867 192.170,116.449 192.058,114.892 189.867 C 114.401 189.176,114.000 188.828,114.000 189.092 C 114.000 189.965,116.684 192.277,118.004 192.541 C 119.670 192.874,132.704 192.879,134.363 192.548 C 139.437 191.533,140.202 183.705,135.447 181.449 C 134.116 180.817,119.729 180.527,117.400 181.084 M149.208 181.501 C 145.257 183.485,144.881 189.092,148.524 191.690 C 150.502 193.100,166.698 193.100,168.676 191.690 C 172.319 189.092,171.943 183.485,167.992 181.501 C 166.806 180.904,165.419 180.801,158.600 180.801 C 151.781 180.801,150.394 180.904,149.208 181.501 M193.872 181.184 C 203.881 181.439,205.889 182.357,205.981 186.716 C 206.068 190.850,203.618 192.159,195.460 192.336 C 184.860 192.566,183.030 192.065,181.802 188.600 C 181.342 187.303,181.232 187.191,181.218 188.009 C 181.192 189.453,183.354 191.895,185.121 192.419 C 187.962 193.262,202.135 192.755,203.472 191.763 C 206.416 189.579,207.118 186.696,205.414 183.787 C 203.776 180.994,202.931 180.787,193.540 180.884 L 185.400 180.969 193.872 181.184 M219.400 181.399 C 218.000 182.127,216.404 183.938,216.403 184.800 C 216.403 185.130,216.761 184.813,217.198 184.096 C 218.833 181.415,219.668 181.203,228.600 181.202 C 235.430 181.201,236.800 181.304,237.966 181.901 C 241.170 183.541,241.724 188.063,239.048 190.738 L 237.587 192.200 228.893 192.200 C 218.324 192.200,216.400 191.329,216.400 186.546 C 216.400 185.952,216.288 185.578,216.152 185.715 C 214.614 187.253,218.028 192.175,220.935 192.611 C 225.310 193.267,237.333 192.647,238.666 191.697 C 241.933 189.367,242.235 185.149,239.337 182.339 L 237.957 181.000 229.279 180.887 C 222.038 180.793,220.401 180.878,219.400 181.399 M169.038 182.850 C 171.516 185.330,171.345 188.641,168.606 191.200 L 167.536 192.200 158.600 192.200 L 149.664 192.200 148.594 191.200 C 146.017 188.792,145.706 185.399,147.854 183.128 C 149.599 181.284,149.984 181.222,159.094 181.314 L 167.588 181.400 169.038 182.850 M183.591 181.713 C 182.221 182.808,181.202 184.561,181.241 185.754 L 181.282 187.000 181.571 185.800 C 182.030 183.899,182.754 182.816,184.126 181.980 C 184.826 181.553,185.130 181.208,184.800 181.214 C 184.470 181.220,183.926 181.445,183.591 181.713 M317.735 184.273 C 316.514 184.518,314.523 186.532,313.807 188.246 C 313.185 189.733,312.869 209.472,313.443 210.967 C 313.653 211.515,314.758 211.600,321.663 211.600 C 330.522 211.600,331.401 211.799,332.816 214.119 C 333.904 215.903,333.858 218.818,332.714 220.563 C 331.163 222.929,330.941 222.982,321.800 223.200 L 313.400 223.400 313.291 230.664 L 313.182 237.929 321.291 238.069 C 330.188 238.223,331.121 238.441,332.768 240.756 C 334.007 242.496,333.919 245.706,332.584 247.457 C 330.880 249.691,330.480 249.783,321.600 250.000 L 313.400 250.200 313.291 257.500 L 313.182 264.800 320.942 264.800 C 331.468 264.800,333.600 265.818,333.600 270.847 C 333.600 275.785,331.412 276.795,320.700 276.798 L 313.200 276.800 313.210 282.900 C 313.233 297.149,309.930 296.000,350.867 296.000 L 383.611 296.000 385.009 295.100 C 387.595 293.435,388.000 291.914,388.000 283.874 L 388.000 276.800 379.872 276.800 L 371.744 276.800 370.081 275.377 C 366.958 272.704,366.958 268.896,370.081 266.223 L 371.744 264.800 379.872 264.800 L 388.000 264.800 388.000 257.400 L 388.000 250.000 379.925 250.000 C 369.747 250.000,367.929 249.120,367.857 244.162 C 367.784 239.090,369.942 238.000,380.059 238.000 L 388.000 238.000 388.000 230.800 L 388.000 223.600 380.526 223.600 C 370.375 223.600,367.822 222.357,367.833 217.418 C 367.844 212.397,369.732 211.435,379.900 211.264 L 388.000 211.129 387.993 200.064 C 387.983 182.398,392.204 184.214,351.000 184.150 C 333.180 184.122,318.211 184.178,317.735 184.273 M117.683 209.084 C 116.736 209.266,114.000 211.734,114.000 212.407 C 114.000 212.617,114.585 212.151,115.300 211.373 C 117.176 209.331,125.797 208.420,133.392 209.461 C 138.271 210.130,139.914 215.789,136.220 219.200 C 135.148 220.191,135.059 220.201,126.809 220.322 C 115.881 220.482,114.026 219.683,113.989 214.800 C 113.978 213.323,113.899 213.132,113.547 213.738 C 112.360 215.780,115.086 219.838,118.246 220.734 C 120.373 221.336,131.485 221.341,133.869 220.741 C 139.933 219.214,140.406 210.861,134.520 209.226 C 133.074 208.825,119.631 208.712,117.683 209.084 M150.405 209.078 C 145.122 210.156,144.443 217.710,149.405 220.200 C 151.393 221.197,163.308 221.596,166.388 220.768 C 171.652 219.353,172.992 212.989,168.676 209.910 C 167.415 209.011,153.777 208.389,150.405 209.078 M185.268 209.072 C 183.632 209.409,181.194 212.211,181.241 213.700 L 181.282 215.000 181.579 213.758 C 181.950 212.204,183.107 210.609,184.361 209.925 C 186.065 208.994,201.893 209.192,203.323 210.161 C 206.783 212.506,206.655 217.436,203.078 219.618 C 201.922 220.322,201.023 220.397,193.680 220.399 C 183.825 220.400,183.075 220.155,181.772 216.504 C 181.366 215.366,181.231 215.225,181.218 215.926 C 181.176 218.124,183.259 220.178,186.192 220.831 C 189.734 221.619,201.076 221.169,203.000 220.165 C 207.118 218.014,207.485 212.985,203.733 210.121 L 202.265 209.000 194.232 208.940 C 189.815 208.907,185.781 208.967,185.268 209.072 M219.928 209.346 C 217.533 210.226,215.945 212.573,216.044 215.087 C 216.077 215.939,216.166 215.805,216.420 214.519 C 217.300 210.062,218.472 209.462,226.682 209.263 C 237.834 208.994,240.294 209.866,240.676 214.225 C 241.139 219.504,239.177 220.456,228.141 220.311 C 218.816 220.189,218.877 220.205,217.144 217.400 C 216.642 216.587,216.403 216.421,216.401 216.887 C 216.391 221.497,234.969 223.276,239.459 219.095 C 242.240 216.505,241.867 212.186,238.666 209.903 C 237.079 208.771,222.660 208.343,219.928 209.346 M168.138 210.122 C 171.768 212.502,171.544 217.936,167.740 219.787 C 163.923 221.644,149.126 220.442,147.446 218.139 C 145.180 215.034,147.036 210.248,150.805 209.477 C 153.613 208.902,167.040 209.402,168.138 210.122 M11.611 275.900 C 11.625 293.336,12.165 295.010,18.229 296.417 C 20.418 296.924,302.277 296.922,302.591 296.414 C 302.722 296.202,302.553 294.961,302.215 293.657 C 301.715 291.730,301.600 288.497,301.600 276.442 L 301.600 261.600 156.600 261.600 L 11.600 261.600 11.611 275.900 M300.686 262.321 C 301.051 262.553,301.205 266.577,301.303 278.415 C 301.374 287.097,301.581 294.605,301.763 295.100 L 302.093 296.000 160.296 296.000 C 35.823 296.000,18.324 295.927,17.077 295.406 C 12.558 293.518,12.013 291.357,12.006 275.300 L 12.000 262.000 156.100 262.006 C 235.355 262.009,300.419 262.151,300.686 262.321 M180.306 274.661 C 176.641 276.593,175.905 282.231,178.963 284.942 C 182.848 288.387,189.200 285.529,189.200 280.335 C 189.200 275.586,184.383 272.513,180.306 274.661 M186.993 276.302 C 190.020 279.329,188.599 284.469,184.424 285.593 C 177.533 287.449,174.705 276.983,181.556 274.977 C 183.426 274.430,185.667 274.976,186.993 276.302 M341.778 308.513 C 341.670 308.795,341.630 312.350,341.691 316.413 L 341.800 323.800 350.700 323.908 L 359.600 324.015 359.600 316.008 L 359.600 308.000 350.787 308.000 C 343.988 308.000,341.930 308.117,341.778 308.513 M153.847 308.724 C 153.735 308.905,153.446 310.481,153.204 312.227 C 152.963 313.972,152.601 316.390,152.401 317.600 C 152.200 318.810,151.836 321.150,151.591 322.800 C 151.346 324.450,150.978 326.925,150.773 328.300 C 150.568 329.675,150.232 331.925,150.027 333.300 C 149.822 334.675,149.465 337.150,149.233 338.800 C 149.001 340.450,148.707 342.173,148.578 342.628 C 148.069 344.430,147.672 344.410,182.844 344.302 L 216.200 344.200 216.166 342.200 C 216.147 341.100,215.910 338.760,215.639 337.000 C 215.045 333.143,214.565 329.948,214.017 326.200 C 213.792 324.660,213.418 322.230,213.186 320.800 C 212.463 316.337,211.973 313.083,211.681 310.800 L 211.400 308.600 182.725 308.497 C 166.954 308.441,153.959 308.543,153.847 308.724 M359.200 316.000 L 359.200 323.200 350.800 323.200 L 342.400 323.200 342.400 316.000 L 342.400 308.800 350.800 308.800 L 359.200 308.800 359.200 316.000 M316.490 336.002 C 314.660 337.117,314.360 338.251,314.488 343.558 L 314.600 348.200 350.692 348.302 L 386.784 348.404 387.037 347.395 C 388.157 342.931,386.657 336.447,384.314 335.630 C 381.696 334.717,318.024 335.066,316.490 336.002 M384.526 336.465 C 386.182 337.347,386.374 338.011,386.387 342.900 L 386.400 347.600 350.800 347.600 L 315.200 347.600 315.200 342.781 C 315.200 338.083,315.227 337.937,316.258 336.981 L 317.317 336.000 350.485 336.000 C 374.934 336.000,383.882 336.122,384.526 336.465 " stroke="none" fill="#6f606c" fill-rule="evenodd"></path><path id="path2" d="M337.282 52.296 C 338.758 52.373,341.278 52.373,342.882 52.297 C 344.487 52.221,343.280 52.158,340.200 52.158 C 337.120 52.157,335.807 52.219,337.282 52.296 M352.995 115.600 C 352.995 146.510,353.042 159.155,353.100 143.700 C 353.158 128.245,353.158 102.955,353.100 87.500 C 353.042 72.045,352.995 84.690,352.995 115.600 M98.000 111.599 C 97.670 111.813,96.950 111.995,96.400 112.004 C 95.082 112.025,91.944 114.360,91.253 115.833 C 90.953 116.475,90.548 117.313,90.353 117.695 C 90.153 118.087,90.000 144.889,90.000 179.398 L 90.000 240.408 168.900 240.304 C 238.209 240.213,247.919 240.127,248.777 239.600 C 250.741 238.394,252.371 236.674,253.177 234.959 C 254.001 233.206,254.002 233.100,253.901 172.302 L 253.800 111.400 176.200 111.306 C 126.533 111.245,98.384 111.351,98.000 111.599 M77.395 184.600 C 77.395 220.460,77.442 235.071,77.500 217.068 C 77.558 199.066,77.558 169.726,77.500 151.868 C 77.442 134.011,77.395 148.740,77.395 184.600 M139.920 131.889 C 140.844 132.489,141.600 133.194,141.600 133.456 C 141.600 133.719,141.796 133.999,142.036 134.079 C 142.676 134.292,142.663 138.794,142.019 140.230 C 141.056 142.375,139.275 143.200,135.606 143.200 L 132.400 143.200 132.400 151.805 C 132.400 157.946,132.257 160.667,131.900 161.305 C 131.020 162.880,129.472 164.400,128.749 164.400 C 128.363 164.400,127.936 164.580,127.800 164.800 C 127.193 165.781,123.462 164.868,121.800 163.331 C 120.105 161.764,120.000 161.133,120.000 152.485 C 120.000 142.735,120.204 143.200,115.920 143.200 C 114.107 143.200,112.800 143.032,112.800 142.800 C 112.800 142.580,112.596 142.400,112.347 142.400 C 110.669 142.400,108.631 137.508,109.553 135.695 C 109.748 135.313,110.152 134.480,110.451 133.844 C 111.805 130.969,112.417 130.850,126.020 130.824 L 138.240 130.800 139.920 131.889 M167.000 152.400 C 167.136 152.620,167.532 152.800,167.880 152.800 C 169.456 152.800,171.600 156.144,171.600 158.600 C 171.600 161.056,169.456 164.400,167.880 164.400 C 167.532 164.400,167.136 164.580,167.000 164.800 C 166.406 165.761,150.975 165.285,149.111 164.248 C 144.605 161.742,144.816 152.800,149.381 152.800 C 149.695 152.800,150.064 152.620,150.200 152.400 C 150.352 152.155,153.596 152.000,158.600 152.000 C 163.604 152.000,166.848 152.155,167.000 152.400 M202.451 152.565 C 205.268 153.744,206.400 155.474,206.400 158.600 C 206.400 161.726,205.268 163.456,202.451 164.635 C 200.822 165.317,185.809 165.462,185.400 164.800 C 185.264 164.580,184.817 164.400,184.408 164.400 C 182.739 164.400,180.800 161.282,180.800 158.600 C 180.800 155.918,182.739 152.800,184.408 152.800 C 184.817 152.800,185.264 152.620,185.400 152.400 C 185.809 151.738,200.822 151.883,202.451 152.565 M237.000 152.400 C 237.136 152.620,237.563 152.800,237.949 152.800 C 239.534 152.800,241.600 156.081,241.600 158.600 C 241.600 161.119,239.534 164.400,237.949 164.400 C 237.563 164.400,237.136 164.580,237.000 164.800 C 236.454 165.684,220.993 165.295,219.320 164.355 C 214.289 161.529,214.363 155.345,219.459 152.801 C 221.205 151.930,236.493 151.580,237.000 152.400 M322.923 171.899 C 325.741 171.968,330.241 171.968,332.923 171.899 C 335.605 171.830,333.300 171.773,327.800 171.773 C 322.300 171.774,320.105 171.830,322.923 171.899 M135.074 180.827 C 140.029 182.704,140.318 192.400,135.419 192.400 C 135.105 192.400,134.736 192.580,134.600 192.800 C 134.062 193.670,118.197 193.297,116.556 192.376 C 111.956 189.792,111.916 183.318,116.487 181.065 C 118.068 180.286,133.137 180.093,135.074 180.827 M168.102 181.034 C 172.594 183.176,172.352 192.400,167.803 192.400 C 167.472 192.400,167.200 192.580,167.200 192.800 C 167.200 193.054,164.067 193.200,158.600 193.200 C 153.133 193.200,150.000 193.054,150.000 192.800 C 150.000 192.580,149.731 192.400,149.403 192.400 C 144.952 192.400,144.483 184.198,148.769 181.310 C 150.540 180.116,165.723 179.899,168.102 181.034 M202.960 180.958 C 206.857 182.586,207.731 188.305,204.567 191.469 C 204.055 191.981,203.369 192.400,203.042 192.400 C 202.715 192.400,202.336 192.580,202.200 192.800 C 201.663 193.670,185.857 193.297,184.127 192.374 C 179.634 189.975,179.557 183.498,183.994 181.141 C 185.821 180.169,200.729 180.026,202.960 180.958 M237.721 180.770 C 238.852 181.200,240.384 182.617,241.100 183.896 C 241.637 184.855,241.799 189.200,241.298 189.200 C 241.131 189.200,240.771 189.707,240.497 190.326 C 239.413 192.774,237.648 193.200,228.586 193.200 C 223.592 193.200,220.352 193.045,220.200 192.800 C 220.064 192.580,219.661 192.400,219.305 192.400 C 218.238 192.400,216.090 189.718,215.805 188.030 C 215.293 185.002,216.927 181.911,219.600 180.848 C 220.871 180.343,236.421 180.276,237.721 180.770 M135.689 209.352 C 140.411 211.978,140.212 218.234,135.326 220.750 C 133.656 221.610,118.250 221.344,116.445 220.423 C 113.870 219.110,112.508 216.092,113.260 213.369 C 113.734 211.652,115.826 209.200,116.818 209.200 C 117.222 209.200,117.664 209.020,117.800 208.800 C 118.394 207.839,133.825 208.315,135.689 209.352 M167.000 208.800 C 167.136 209.020,167.508 209.200,167.827 209.200 C 171.111 209.200,172.733 216.143,170.096 218.918 C 168.017 221.105,167.536 221.200,158.479 221.200 C 149.125 221.200,148.541 221.045,146.510 218.031 C 144.590 215.182,146.447 209.200,149.251 209.200 C 149.637 209.200,150.064 209.020,150.200 208.800 C 150.352 208.555,153.596 208.400,158.600 208.400 C 163.604 208.400,166.848 208.555,167.000 208.800 M203.037 209.221 C 207.680 211.829,207.748 218.248,203.158 220.622 C 201.110 221.681,184.859 221.301,183.328 220.158 C 179.474 217.282,180.320 209.200,184.475 209.200 C 184.874 209.200,185.200 209.020,185.200 208.800 C 185.200 207.921,201.404 208.303,203.037 209.221 M237.105 208.753 C 237.487 208.948,238.293 209.337,238.895 209.618 C 239.498 209.900,240.217 210.641,240.493 211.265 C 240.769 211.889,241.131 212.400,241.298 212.400 C 241.799 212.400,241.637 216.746,241.100 217.686 C 239.230 220.958,238.366 221.200,228.548 221.200 C 219.948 221.200,219.475 221.118,217.509 219.285 C 214.571 216.545,215.879 209.200,219.305 209.200 C 219.661 209.200,220.064 209.020,220.200 208.800 C 220.510 208.298,236.126 208.255,237.105 208.753 M156.200 262.399 L 300.600 262.600 300.808 276.400 L 301.016 290.200 301.108 276.343 C 301.190 264.021,301.130 262.459,300.567 262.243 C 300.219 262.109,235.104 262.045,155.867 262.099 L 11.800 262.198 156.200 262.399 M333.930 336.300 C 343.241 336.360,358.361 336.360,367.530 336.300 C 376.698 336.240,369.080 336.191,350.600 336.191 C 332.120 336.191,324.618 336.240,333.930 336.300 " stroke="none" fill="#faea7c" fill-rule="evenodd"></path><path id="path3" d="M72.252 45.700 C 72.119 46.195,72.008 46.943,72.005 47.362 C 71.999 48.299,70.282 50.609,69.084 51.295 C 68.408 51.681,62.265 51.847,43.000 52.000 C 15.340 52.220,16.747 52.089,14.337 54.664 C 11.814 57.360,12.000 49.427,12.000 154.449 L 12.000 250.000 44.600 250.000 L 77.200 250.000 77.200 185.333 C 77.200 121.517,77.264 118.020,78.499 113.800 C 80.301 107.648,85.677 102.244,92.246 99.984 C 94.482 99.215,96.136 99.200,180.024 99.200 L 265.523 99.200 268.305 100.141 C 274.640 102.284,279.162 106.772,281.698 113.432 L 282.600 115.800 282.800 182.800 L 283.000 249.800 291.200 249.913 C 295.710 249.976,299.805 249.927,300.300 249.806 L 301.200 249.585 301.205 218.892 C 301.210 182.224,301.085 183.131,306.950 177.373 C 312.440 171.983,314.191 171.632,335.700 171.614 L 352.800 171.600 352.800 114.812 L 352.800 58.024 351.955 56.520 C 351.016 54.848,349.992 53.850,348.200 52.862 C 347.092 52.251,336.895 52.185,215.871 52.000 L 84.742 51.800 83.184 50.130 C 82.209 49.084,81.454 47.775,81.166 46.630 L 80.705 44.800 76.599 44.800 C 72.679 44.800,72.482 44.841,72.252 45.700 M12.000 275.305 C 12.000 289.943,12.216 291.276,15.006 293.831 C 17.496 296.112,9.977 296.000,161.220 296.000 C 308.150 296.000,303.096 296.055,301.500 294.460 C 301.124 294.084,300.950 290.068,300.800 278.280 L 300.600 262.600 156.300 262.499 L 12.000 262.399 12.000 275.305 M185.942 274.631 C 190.926 277.117,190.186 284.834,184.815 286.383 C 177.674 288.442,173.752 278.364,180.200 274.524 C 181.352 273.837,184.468 273.895,185.942 274.631 M342.400 316.000 L 342.400 323.200 350.800 323.200 L 359.200 323.200 359.200 316.000 L 359.200 308.800 350.800 308.800 L 342.400 308.800 342.400 316.000 M316.070 337.326 C 315.279 338.167,315.200 338.677,315.200 342.926 L 315.200 347.600 350.800 347.600 L 386.400 347.600 386.400 343.162 C 386.400 339.316,386.290 338.568,385.573 337.562 L 384.746 336.400 350.842 336.400 L 316.939 336.400 316.070 337.326 " stroke="none" fill="#fbf3f2" fill-rule="evenodd"></path><path id="path4" d="M96.200 111.600 C 95.467 111.915,95.484 111.946,96.400 111.966 C 96.950 111.978,97.670 111.813,98.000 111.600 C 98.787 111.091,97.384 111.091,96.200 111.600 M253.903 172.199 C 254.005 233.127,254.004 233.200,253.178 234.957 C 252.371 236.674,250.742 238.393,248.777 239.600 C 247.919 240.127,238.210 240.213,168.901 240.304 L 90.003 240.408 89.899 180.304 L 89.796 120.200 89.798 185.000 L 89.800 249.800 180.000 249.800 L 270.200 249.800 270.301 183.889 L 270.402 117.978 269.444 116.089 C 267.487 112.229,265.247 111.221,258.600 111.209 L 253.800 111.200 253.903 172.199 M93.088 113.231 C 92.267 113.909,91.385 114.854,91.130 115.331 C 90.847 115.860,91.200 115.648,92.032 114.789 C 92.785 114.013,93.850 113.077,94.400 112.710 C 94.950 112.343,95.216 112.033,94.991 112.021 C 94.766 112.009,93.910 112.554,93.088 113.231 M112.610 131.618 C 111.400 132.391,110.025 133.930,110.009 134.531 C 110.004 134.713,110.471 134.301,111.048 133.616 C 113.057 131.228,113.232 131.200,126.206 131.200 C 138.436 131.200,138.868 131.251,140.700 132.920 C 141.195 133.371,141.600 133.568,141.600 133.359 C 141.600 133.150,140.844 132.489,139.920 131.889 L 138.240 130.800 126.020 130.829 C 114.730 130.856,113.709 130.916,112.610 131.618 M109.467 135.867 C 109.074 136.259,109.154 138.108,109.593 138.800 C 109.862 139.225,109.962 138.845,109.936 137.500 C 109.896 135.490,109.885 135.449,109.467 135.867 M110.000 139.815 C 110.001 140.296,111.946 142.589,112.163 142.365 C 112.250 142.274,111.800 141.577,111.161 140.815 C 110.522 140.053,110.000 139.603,110.000 139.815 M140.629 141.429 C 140.205 141.738,139.936 142.069,140.030 142.163 C 140.124 142.257,140.548 142.081,140.971 141.771 C 141.395 141.462,141.664 141.131,141.570 141.037 C 141.476 140.943,141.052 141.119,140.629 141.429 M131.999 152.081 C 131.890 157.075,131.939 161.022,132.108 160.853 C 132.277 160.683,132.367 156.597,132.307 151.772 L 132.199 143.000 131.999 152.081 M150.262 152.300 C 150.160 152.465,153.912 152.600,158.600 152.600 C 163.288 152.600,167.040 152.465,166.938 152.300 C 166.836 152.135,163.084 152.000,158.600 152.000 C 154.116 152.000,150.364 152.135,150.262 152.300 M185.461 152.300 C 185.359 152.465,188.633 152.540,192.738 152.467 C 200.813 152.323,202.381 152.562,204.382 154.246 C 205.052 154.810,205.600 155.141,205.600 154.982 C 205.600 154.489,203.864 153.156,202.451 152.565 C 200.990 151.953,185.823 151.717,185.461 152.300 M219.459 152.801 C 214.363 155.345,214.289 161.529,219.320 164.355 C 220.864 165.223,236.440 165.704,236.939 164.900 C 237.041 164.735,233.781 164.660,229.694 164.733 C 219.578 164.913,216.955 163.964,216.181 159.840 C 215.098 154.067,218.400 152.266,229.694 152.467 C 233.781 152.540,237.041 152.465,236.939 152.300 C 236.480 151.560,221.060 152.002,219.459 152.801 M147.748 153.724 C 147.279 154.206,146.684 155.050,146.426 155.600 C 145.952 156.608,146.620 155.987,147.527 154.576 C 147.677 154.343,148.245 153.848,148.789 153.476 C 149.366 153.081,149.533 152.810,149.189 152.824 C 148.865 152.837,148.217 153.242,147.748 153.724 M168.411 153.476 C 168.955 153.848,169.523 154.343,169.673 154.576 C 170.464 155.808,171.176 156.547,171.187 156.150 C 171.206 155.487,168.635 152.800,167.983 152.800 C 167.671 152.800,167.861 153.100,168.411 153.476 M182.231 154.472 C 179.627 157.514,181.085 164.406,184.331 164.399 C 184.749 164.398,184.519 164.103,183.719 163.616 C 182.059 162.604,181.200 160.894,181.200 158.600 C 181.200 156.306,182.059 154.596,183.719 153.584 C 184.519 153.097,184.749 152.802,184.331 152.801 C 183.963 152.801,183.018 153.552,182.231 154.472 M238.506 153.535 C 239.115 153.936,239.874 154.610,240.194 155.032 C 240.513 155.454,240.780 155.609,240.787 155.375 C 240.806 154.762,238.662 152.800,237.978 152.803 C 237.660 152.804,237.898 153.134,238.506 153.535 M145.714 158.600 C 145.717 159.700,145.795 160.103,145.887 159.495 C 145.979 158.886,145.977 157.986,145.882 157.495 C 145.787 157.003,145.711 157.500,145.714 158.600 M171.314 158.600 C 171.317 159.700,171.395 160.103,171.487 159.495 C 171.579 158.886,171.577 157.986,171.482 157.495 C 171.387 157.003,171.311 157.500,171.314 158.600 M120.000 160.121 C 120.000 162.999,126.515 166.879,127.816 164.774 C 127.992 164.489,127.637 164.429,126.739 164.592 C 124.659 164.969,122.025 163.446,120.900 161.215 C 120.405 160.234,120.000 159.741,120.000 160.121 M146.555 161.841 C 147.120 163.002,149.068 164.665,149.434 164.299 C 149.525 164.209,149.149 163.894,148.599 163.600 C 148.050 163.306,147.596 162.960,147.591 162.832 C 147.586 162.705,147.215 162.150,146.767 161.600 L 145.952 160.600 146.555 161.841 M170.173 161.937 C 169.804 162.563,169.029 163.368,168.451 163.727 C 167.873 164.085,167.657 164.384,167.972 164.389 C 168.568 164.400,171.200 161.759,171.200 161.150 C 171.200 160.518,170.856 160.782,170.173 161.937 M130.906 162.197 C 130.704 162.558,130.012 163.200,129.369 163.624 C 128.657 164.093,128.445 164.396,128.825 164.397 C 129.540 164.400,131.862 162.129,131.508 161.774 C 131.379 161.645,131.108 161.835,130.906 162.197 M240.106 162.197 C 239.904 162.558,239.212 163.200,238.569 163.624 C 237.857 164.093,237.645 164.396,238.025 164.397 C 238.740 164.400,241.062 162.129,240.708 161.774 C 240.579 161.645,240.308 161.835,240.106 162.197 M204.615 162.783 C 203.031 164.534,201.073 164.859,192.914 164.725 C 188.713 164.656,185.359 164.735,185.461 164.900 C 185.823 165.483,200.990 165.247,202.451 164.635 C 203.945 164.010,205.840 162.507,205.528 162.195 C 205.418 162.085,205.007 162.350,204.615 162.783 M150.262 164.900 C 150.364 165.065,154.116 165.200,158.600 165.200 C 163.084 165.200,166.836 165.065,166.938 164.900 C 167.040 164.735,163.288 164.600,158.600 164.600 C 153.912 164.600,150.160 164.735,150.262 164.900 M116.487 181.065 C 114.940 181.828,113.740 183.384,113.434 185.024 C 113.219 186.181,113.222 186.180,113.657 184.931 C 113.899 184.233,114.716 183.063,115.470 182.331 L 116.843 181.000 124.894 180.869 C 134.465 180.713,135.193 180.819,137.006 182.633 C 137.773 183.399,138.400 183.874,138.400 183.688 C 138.400 183.114,136.262 181.274,135.074 180.825 C 133.135 180.093,118.066 180.287,116.487 181.065 M148.769 181.310 C 146.663 182.729,145.590 184.606,145.656 186.759 L 145.713 188.600 145.966 186.517 C 146.569 181.556,148.237 180.801,158.600 180.801 C 167.579 180.801,168.612 181.045,170.292 183.559 C 170.791 184.307,171.200 184.768,171.200 184.584 C 171.200 183.773,169.315 181.612,168.102 181.034 C 165.723 179.899,150.540 180.116,148.769 181.310 M183.994 181.141 C 179.996 183.265,179.568 188.990,183.191 191.887 C 184.448 192.893,184.223 192.344,182.738 190.783 C 180.211 188.127,180.721 183.583,183.773 181.551 C 184.393 181.138,186.722 180.968,193.080 180.872 C 202.846 180.724,203.710 180.926,205.403 183.749 C 205.947 184.657,206.394 185.147,206.396 184.838 C 206.403 183.859,204.346 181.537,202.960 180.958 C 200.729 180.026,185.821 180.169,183.994 181.141 M219.600 180.848 C 216.954 181.900,215.261 185.067,215.802 187.950 C 216.070 189.382,217.518 191.815,217.884 191.449 C 217.992 191.341,217.719 190.865,217.278 190.392 C 214.659 187.580,216.684 181.708,220.522 180.988 C 221.255 180.851,225.478 180.797,229.906 180.869 L 237.957 181.000 239.379 182.378 C 240.160 183.137,240.800 183.607,240.800 183.424 C 240.800 182.905,238.799 181.180,237.721 180.770 C 236.421 180.276,220.871 180.343,219.600 180.848 M240.828 184.276 C 240.918 185.315,241.544 186.196,241.572 185.324 C 241.587 184.842,241.420 184.336,241.200 184.200 C 240.980 184.064,240.813 184.098,240.828 184.276 M138.587 186.800 C 138.587 188.090,138.722 188.933,138.887 188.673 C 139.053 188.413,139.188 187.570,139.188 186.800 C 139.188 186.030,139.053 185.187,138.887 184.927 C 138.722 184.667,138.587 185.510,138.587 186.800 M171.309 186.800 C 171.309 187.790,171.387 188.195,171.482 187.700 C 171.578 187.205,171.578 186.395,171.482 185.900 C 171.387 185.405,171.309 185.810,171.309 186.800 M113.216 187.874 C 113.169 189.279,115.474 192.403,116.555 192.398 C 116.800 192.397,116.506 191.992,115.902 191.498 C 115.298 191.004,114.451 189.880,114.018 189.000 C 113.586 188.120,113.225 187.613,113.216 187.874 M205.817 189.145 C 205.677 189.588,204.934 190.502,204.167 191.175 C 203.400 191.849,202.967 192.400,203.204 192.400 C 204.106 192.400,206.772 189.039,206.269 188.536 C 206.161 188.428,205.958 188.702,205.817 189.145 M146.000 189.154 C 146.000 189.375,146.405 189.979,146.900 190.497 C 147.395 191.015,147.575 191.146,147.300 190.788 C 147.025 190.430,146.800 189.937,146.800 189.692 C 146.800 189.447,146.620 189.136,146.400 189.000 C 146.180 188.864,146.000 188.933,146.000 189.154 M170.527 189.500 C 170.390 189.885,170.081 190.479,169.839 190.820 C 169.598 191.160,169.805 191.015,170.300 190.497 C 170.795 189.979,171.200 189.385,171.200 189.178 C 171.200 188.555,170.792 188.750,170.527 189.500 M137.489 190.405 C 136.726 191.296,136.584 191.781,137.198 191.401 C 137.590 191.159,138.546 189.600,138.303 189.600 C 138.234 189.600,137.868 189.962,137.489 190.405 M239.289 191.027 C 238.567 191.782,238.138 192.400,238.334 192.400 C 238.792 192.400,240.800 190.401,240.800 189.945 C 240.800 189.461,240.755 189.493,239.289 191.027 M117.462 192.900 C 117.564 193.065,121.406 193.200,126.000 193.200 C 130.594 193.200,134.436 193.065,134.538 192.900 C 134.640 192.735,130.798 192.600,126.000 192.600 C 121.202 192.600,117.360 192.735,117.462 192.900 M150.000 192.900 C 150.000 193.065,153.870 193.200,158.600 193.200 C 163.330 193.200,167.200 193.065,167.200 192.900 C 167.200 192.735,163.330 192.600,158.600 192.600 C 153.870 192.600,150.000 192.735,150.000 192.900 M185.062 192.900 C 185.164 193.065,189.006 193.200,193.600 193.200 C 198.194 193.200,202.036 193.065,202.138 192.900 C 202.240 192.735,198.398 192.600,193.600 192.600 C 188.802 192.600,184.960 192.735,185.062 192.900 M220.262 192.900 C 220.364 193.065,224.206 193.200,228.800 193.200 C 233.394 193.200,237.236 193.065,237.338 192.900 C 237.440 192.735,233.598 192.600,228.800 192.600 C 224.002 192.600,220.160 192.735,220.262 192.900 M117.862 208.700 C 117.760 208.865,121.513 209.000,126.200 209.000 C 130.888 209.000,134.640 208.865,134.538 208.700 C 134.436 208.535,130.684 208.400,126.200 208.400 C 121.716 208.400,117.964 208.535,117.862 208.700 M150.262 208.700 C 150.160 208.865,153.912 209.000,158.600 209.000 C 163.288 209.000,167.040 208.865,166.938 208.700 C 166.836 208.535,163.084 208.400,158.600 208.400 C 154.116 208.400,150.364 208.535,150.262 208.700 M185.200 208.700 C 185.200 208.865,189.053 209.000,193.762 209.000 C 198.471 209.000,202.240 208.865,202.138 208.700 C 202.036 208.535,198.183 208.400,193.576 208.400 C 188.969 208.400,185.200 208.535,185.200 208.700 M220.262 208.700 C 220.160 208.865,223.912 209.000,228.600 209.000 C 233.287 209.000,237.040 208.865,236.938 208.700 C 236.836 208.535,233.084 208.400,228.600 208.400 C 224.116 208.400,220.364 208.535,220.262 208.700 M115.124 210.300 C 113.956 211.552,113.193 212.902,113.216 213.674 C 113.225 213.963,113.586 213.480,114.018 212.600 C 114.451 211.720,115.298 210.596,115.902 210.102 C 116.506 209.608,116.809 209.203,116.575 209.202 C 116.341 209.201,115.688 209.695,115.124 210.300 M147.241 210.614 C 146.050 211.971,145.565 213.116,146.400 212.600 C 146.620 212.464,146.800 212.106,146.800 211.805 C 146.800 211.504,147.385 210.797,148.100 210.233 C 148.815 209.670,149.194 209.207,148.941 209.204 C 148.689 209.202,147.924 209.836,147.241 210.614 M182.873 210.018 C 178.962 213.661,180.608 220.284,185.600 220.988 L 187.000 221.186 185.576 220.771 C 181.053 219.454,179.549 214.051,182.800 210.800 C 184.423 209.177,184.485 208.516,182.873 210.018 M204.085 210.409 C 204.892 211.074,205.669 211.988,205.813 212.439 C 205.956 212.891,206.161 213.172,206.269 213.064 C 206.805 212.528,203.999 209.202,203.009 209.200 C 202.794 209.200,203.278 209.744,204.085 210.409 M238.600 209.825 C 239.040 210.154,239.711 210.823,240.091 211.312 C 240.471 211.800,240.786 212.000,240.791 211.755 C 240.803 211.174,238.822 209.196,238.245 209.213 C 238.000 209.220,238.160 209.495,238.600 209.825 M136.800 210.193 C 136.800 210.325,137.182 210.831,137.649 211.317 L 138.499 212.200 138.047 211.322 C 137.600 210.454,136.800 209.729,136.800 210.193 M169.900 210.812 C 170.175 211.170,170.400 211.663,170.400 211.908 C 170.400 212.153,170.580 212.464,170.800 212.600 C 171.543 213.059,171.206 212.051,170.300 211.103 C 169.805 210.585,169.625 210.454,169.900 210.812 M216.756 211.261 C 214.196 214.857,217.072 221.321,221.159 221.159 C 222.010 221.125,221.920 221.043,220.665 220.711 C 216.432 219.589,214.408 212.773,217.704 210.736 C 217.964 210.575,218.067 210.333,217.932 210.199 C 217.797 210.064,217.268 210.542,216.756 211.261 M138.587 214.800 C 138.587 216.090,138.722 216.933,138.887 216.673 C 139.053 216.413,139.188 215.570,139.188 214.800 C 139.188 214.030,139.053 213.187,138.887 212.927 C 138.722 212.667,138.587 213.510,138.587 214.800 M145.656 214.841 C 145.569 217.689,148.554 221.252,150.959 221.172 C 151.513 221.153,151.264 220.947,150.227 220.567 C 147.439 219.546,146.381 218.162,145.972 215.000 L 145.713 213.000 145.656 214.841 M171.309 214.800 C 171.309 215.790,171.387 216.195,171.482 215.700 C 171.578 215.205,171.578 214.395,171.482 213.900 C 171.387 213.405,171.309 213.810,171.309 214.800 M113.232 216.153 C 113.188 217.184,114.683 219.513,115.736 220.055 C 116.400 220.397,116.311 220.188,115.349 219.150 C 114.661 218.408,113.910 217.260,113.681 216.600 C 113.407 215.814,113.252 215.660,113.232 216.153 M241.246 215.867 C 241.221 216.124,241.084 216.664,240.941 217.067 C 240.740 217.636,240.794 217.697,241.179 217.342 C 241.452 217.091,241.589 216.551,241.484 216.142 C 241.379 215.734,241.272 215.610,241.246 215.867 M205.624 217.542 C 205.012 219.019,203.563 220.163,201.585 220.730 C 200.537 221.031,200.424 221.137,201.120 221.164 C 203.048 221.240,206.760 218.081,206.315 216.744 C 206.226 216.479,205.916 216.838,205.624 217.542 M170.832 217.086 C 170.814 217.353,170.228 218.253,169.528 219.086 L 168.257 220.600 169.777 219.145 C 170.633 218.326,171.202 217.452,171.080 217.145 C 170.936 216.783,170.853 216.763,170.832 217.086 M136.937 219.010 C 136.242 219.721,134.982 220.486,134.137 220.710 C 133.085 220.989,132.890 221.130,133.520 221.159 C 134.702 221.212,136.340 220.354,137.568 219.040 C 138.990 217.518,138.420 217.491,136.937 219.010 M239.432 219.167 C 238.818 219.807,237.668 220.455,236.861 220.614 C 236.057 220.773,235.623 220.984,235.897 221.083 C 236.752 221.395,239.034 220.425,239.966 219.353 C 241.218 217.913,240.779 217.761,239.432 219.167 M117.200 220.800 C 117.530 221.013,118.160 221.178,118.600 221.166 L 119.400 221.144 118.600 220.800 C 117.404 220.286,116.405 220.286,117.200 220.800 M166.200 220.800 L 165.400 221.144 166.200 221.166 C 166.640 221.178,167.270 221.013,167.600 220.800 C 168.395 220.286,167.396 220.286,166.200 220.800 " stroke="none" fill="#f0da59" fill-rule="evenodd"></path></g></svg>